#!OML:ASF H:\Terrain\Patient Classification 1\Walking\liu\liu.ASF
:FULLY-SPECIFIED
:DEGREES
501
root 10.606000 16.899599 34.084999 5.804500 4.894980 4.942820
lowerback -8.139406 -5.803259 -6.436320
upperback 0.493543 -7.257316 1.825725
thorax 6.022225 -3.797629 4.583788
lowerneck -26.089802 -3.134362 -11.545711
upperneck 26.758711 -3.693789 12.167211
head 13.601061 -1.119448 5.991029
rclavicle 0.000000 -0.000000
rhumerus -54.445049 5.834466 -91.616585
rradius 35.513611
rwrist -18.056831
rhand -32.391922 -22.536249
rfingers 7.837522
rthumb -3.061927 -55.494011
lclavicle 0.000000 -0.000000
lhumerus -17.588890 -26.943071 97.626320
lradius 39.196083
lwrist 8.346096
lhand -13.552990 -28.515522
lfingers 7.837522
lthumb 15.122581 3.962926
rfemur -46.496120 9.749333 12.325390
rtibia 30.565151
rfoot -27.023149 -14.609211
rtoes -28.919880
lfemur 21.504999 1.226896 -30.391680
ltibia 0.000000
lfoot -18.110950 4.047054
ltoes -3.120326
502
root 10.591600 16.855499 34.276699 5.858500 4.803030 5.448430
lowerback -8.374125 -5.775066 -6.825346
upperback 0.550403 -7.155170 1.571614
thorax 6.216529 -3.758480 4.524344
lowerneck -26.121920 -3.107181 -11.273350
upperneck 26.475241 -3.673439 11.962390
head 13.483910 -1.107634 5.851648
rclavicle -0.000000 -0.000000
rhumerus -54.504341 5.218499 -91.337952
rradius 34.970432
rwrist -17.498140
rhand -31.743912 -22.176991
rfingers 7.837522
rthumb -2.436115 -55.142120
lclavicle -0.000000 -0.000000
lhumerus -18.532471 -27.792049 98.169830
lradius 39.010620
lwrist 8.779530
lhand -12.163691 -28.205650
lfingers 7.837522
lthumb 16.461170 4.177679
rfemur -46.311653 8.541456 12.595330
rtibia 31.350109
rfoot -27.023149 -14.609211
rtoes -28.919880
lfemur 22.304152 1.224641 -30.819471
ltibia 0.000000
lfoot -18.239210 3.491697
ltoes -1.320385
503
root 10.562700 16.822001 34.446899 5.772360 4.703680 5.890350
lowerback -8.033829 -5.818890 -7.442435
upperback 0.513728 -7.173914 1.420265
thorax 6.041607 -3.778456 4.734917
lowerneck -26.048222 -2.848208 -10.724659
upperneck 26.173950 -3.396305 11.620840
head 13.298670 -0.975559 5.652834
rclavicle -0.000000 -0.000000
rhumerus -54.433720 5.093121 -91.318481
rradius 34.006283
rwrist -17.205431
rhand -31.796272 -24.508772
rfingers 7.837522
rthumb -2.486715 -57.473244
lclavicle -0.000000 -0.000000
lhumerus -19.756660 -28.568430 98.888245
lradius 38.145691
lwrist 6.841165
lhand -14.402740 -29.182781
lfingers 7.837522
lthumb 14.303520 3.349489
rfemur -46.296803 8.005580 12.699830
rtibia 32.250351
rfoot -27.023149 -14.609211
rtoes -28.919880
lfemur 23.002651 1.253197 -31.131432
ltibia 0.000000
lfoot -17.824839 3.501036
ltoes -1.405822
504
root 10.533300 16.813200 34.619598 5.781710 4.778710 5.721010
lowerback -7.831747 -5.826458 -7.295376
upperback 0.401214 -7.216517 1.480303
thorax 5.804271 -3.788015 4.734378
lowerneck -26.080341 -2.899776 -10.951534
upperneck 26.082760 -3.480213 11.981971
head 13.291740 -0.986182 5.816921
rclavicle -0.000000 0.000000
rhumerus -54.544823 4.764639 -91.146439
rradius 33.187881
rwrist -16.786661
rhand -32.172798 -27.363821
rfingers 7.837522
rthumb -2.850353 -60.324219
lclavicle -0.000000 0.000000
lhumerus -20.359350 -27.554562 99.208672
lradius 38.176380
lwrist 8.563270
lhand -15.299681 -29.276171
lfingers 7.837522
lthumb 13.438810 3.309383
rfemur -46.512402 7.490527 13.484350
rtibia 33.416679
rfoot -27.023149 -14.609211
rtoes -28.919880
lfemur 23.598740 1.137147 -30.774040
ltibia -0.000000
lfoot -17.214121 4.315245
ltoes -6.453326
